<svg width="512" height="512" viewBox="0 0 512 512" fill="none" xmlns="http://www.w3.org/2000/svg">
<g clip-path="url(#clip0_1242_6128)">
<rect width="512" height="512" fill="#ECE8E1"/>
<path d="M183.896 416.5V91.6562H269.722C287.687 91.6562 301.898 95.6553 312.357 103.653C322.939 111.651 330.507 123.033 335.06 137.799C339.612 152.564 341.889 170.16 341.889 190.586C341.889 210.273 339.981 227.438 336.167 242.081C332.353 256.601 325.523 267.859 315.68 275.857C305.959 283.855 292.116 287.854 274.151 287.854H247.758V416.5H183.896ZM247.758 229.53H251.449C263.508 229.53 270.891 226.146 273.598 219.379C276.305 212.611 277.658 202.645 277.658 189.479C277.658 177.174 276.305 167.699 273.598 161.055C271.014 154.287 264.8 150.903 254.956 150.903H247.758V229.53Z" fill="#1E293B"/>
<line x1="163.5" y1="356.5" x2="343.5" y2="356.5" stroke="#F87171" strokeWidth="6"/>
</g>
<defs>
<clipPath id="clip0_1242_6128">
<rect width="512" height="512" fill="white"/>
</clipPath>
</defs>
</svg>
